<?xml version="1.0" encoding="iso-8859-1"?>
<!-- Generator: Adobe Illustrator 19.0.0, SVG Export Plug-In . SVG Version: 6.00 Build 0)  -->
<svg version="1.1" id="Layer_1" xmlns="http://www.w3.org/2000/svg" xmlns:xlink="http://www.w3.org/1999/xlink" x="0px" y="0px"
	 viewBox="0 0 512 512" style="enable-background:new 0 0 512 512;" xml:space="preserve">
<g>
	<g>
		<g>
			<path fill="currentColor" d="M486.4,260.267H145.067c-14.114,0-25.6,11.486-25.6,25.6v25.6h56.201l-11.034-11.034c-3.337-3.336-3.337-8.73,0-12.066
				c3.337-3.337,8.73-3.337,12.066,0l25.591,25.591c0.794,0.794,1.417,1.732,1.852,2.782c0.862,2.082,0.862,4.437,0,6.519
				c-0.435,1.05-1.058,1.988-1.852,2.782L176.7,351.633c-1.664,1.664-3.849,2.5-6.033,2.5c-2.185,0-4.369-0.836-6.033-2.5
				c-3.337-3.336-3.337-8.73,0-12.066l11.034-11.034h-56.201v25.6c0,14.114,11.486,25.6,25.6,25.6H486.4
				c14.114,0,25.6-11.486,25.6-25.6v-68.267C512,271.753,500.514,260.267,486.4,260.267z M452.267,328.533h-204.8
				c-4.719,0-8.533-3.823-8.533-8.533s3.814-8.533,8.533-8.533h204.8c4.719,0,8.533,3.823,8.533,8.533
				S456.986,328.533,452.267,328.533z"/>
			<path fill="currentColor" d="M25.6,123.733h341.333c14.114,0,25.6-11.486,25.6-25.6V29.867c0-14.114-11.486-25.6-25.6-25.6H25.6
				C11.486,4.267,0,15.753,0,29.867v68.267C0,112.247,11.486,123.733,25.6,123.733z M128,55.467h204.8
				c4.719,0,8.533,3.823,8.533,8.533s-3.814,8.533-8.533,8.533H128c-4.719,0-8.533-3.823-8.533-8.533S123.281,55.467,128,55.467z
				 M68.267,46.933c9.421,0,17.067,7.637,17.067,17.067s-7.646,17.067-17.067,17.067C58.846,81.067,51.2,73.429,51.2,64
				S58.846,46.933,68.267,46.933z"/>
			<path fill="currentColor" d="M25.6,251.733h341.333c14.114,0,25.6-11.486,25.6-25.6v-68.267c0-14.114-11.486-25.6-25.6-25.6H25.6
				c-14.114,0-25.6,11.486-25.6,25.6v68.267C0,240.247,11.486,251.733,25.6,251.733z M128,183.467h204.8
				c4.719,0,8.533,3.823,8.533,8.533s-3.814,8.533-8.533,8.533H128c-4.719,0-8.533-3.823-8.533-8.533S123.281,183.467,128,183.467z
				 M68.267,174.933c9.421,0,17.067,7.637,17.067,17.067s-7.646,17.067-17.067,17.067c-9.421,0-17.067-7.637-17.067-17.067
				S58.846,174.933,68.267,174.933z"/>
			<path fill="currentColor" d="M366.933,388.267H25.6c-14.114,0-25.6,11.486-25.6,25.6v68.267c0,14.114,11.486,25.6,25.6,25.6h341.333
				c14.114,0,25.6-11.486,25.6-25.6v-68.267C392.533,399.753,381.047,388.267,366.933,388.267z M68.267,465.067
				c-9.421,0-17.067-7.637-17.067-17.067s7.646-17.067,17.067-17.067c9.421,0,17.067,7.637,17.067,17.067
				S77.688,465.067,68.267,465.067z M332.8,456.533H128c-4.719,0-8.533-3.823-8.533-8.533s3.814-8.533,8.533-8.533h204.8
				c4.719,0,8.533,3.823,8.533,8.533S337.519,456.533,332.8,456.533z"/>
		</g>
	</g>
</g>
<g>
</g>
<g>
</g>
<g>
</g>
<g>
</g>
<g>
</g>
<g>
</g>
<g>
</g>
<g>
</g>
<g>
</g>
<g>
</g>
<g>
</g>
<g>
</g>
<g>
</g>
<g>
</g>
<g>
</g>
</svg>
