<svg xmlns="http://www.w3.org/2000/svg" xmlns:xlink="http://www.w3.org/1999/xlink" version="1.1" width="256" height="256" viewBox="0 0 256 256" xml:space="preserve">
<title>Phone</title>
<desc>Created with Fabric.js 1.7.22</desc>
<defs>
</defs>
<g transform="translate(128 128) scale(0.72 0.72)" style="">
	<g style="stroke: none; stroke-width: 0; stroke-dasharray: none; stroke-linecap: butt; stroke-linejoin: miter; stroke-miterlimit: 10; fill: none; fill-rule: nonzero; opacity: 1;" transform="translate(-175.05 -175.05000000000004) scale(3.89 3.89)" >
	<path fill="currentColor" d="M 45 0 C 20.147 0 0 20.147 0 45 c 0 24.853 20.147 45 45 45 s 45 -20.147 45 -45 C 90 20.147 69.853 0 45 0 z M 68.728 64.402 l -1.819 1.819 c -0.042 0.042 -0.087 0.08 -0.133 0.114 c -0.116 0.13 -0.236 0.256 -0.36 0.379 c -2.234 2.234 -5.358 3.373 -9.085 3.373 c -1.955 0.001 -4.074 -0.313 -6.32 -0.946 c -6.303 -1.777 -12.904 -5.885 -18.586 -11.568 c -5.682 -5.682 -9.79 -12.283 -11.568 -18.586 c -1.84 -6.528 -0.978 -11.999 2.429 -15.406 c 0.124 -0.124 0.25 -0.244 0.38 -0.36 c 0.033 -0.046 0.07 -0.09 0.112 -0.131 l 1.819 -1.819 c 0.877 -0.877 2.042 -1.36 3.282 -1.36 c 1.24 0 2.405 0.483 3.282 1.36 l 6.976 6.977 c 1.81 1.81 1.81 4.754 0 6.563 L 36.149 37.8 c -0.753 0.753 -0.753 1.979 0 2.732 L 49.468 53.85 c 0.729 0.729 2.002 0.729 2.732 0 l 2.988 -2.988 c 1.81 -1.808 4.755 -1.81 6.564 -0.001 l 6.977 6.977 c 0.876 0.876 1.359 2.042 1.359 3.281 C 70.088 62.36 69.605 63.525 68.728 64.402 z" style="stroke: none; stroke-width: 1; stroke-dasharray: none; stroke-linecap: butt; stroke-linejoin: miter; stroke-miterlimit: 10;  opacity: 1;" transform=" matrix(1 0 0 1 0 0) " stroke-linecap="round" />
</g>
</g>
</svg>