<?xml version="1.0" encoding="iso-8859-1"?>
<!-- Generator: Adobe Illustrator 19.0.0, SVG Export Plug-In . SVG Version: 6.00 Build 0)  -->
<svg version="1.1" id="Layer_1" xmlns="http://www.w3.org/2000/svg" xmlns:xlink="http://www.w3.org/1999/xlink" x="0px" y="0px"
	 viewBox="0 0 502 502" style="enable-background:new 0 0 502 502;" xml:space="preserve">
<g>
	<g>
		<g>
			<path fill="currentColor" d="M251,78.012c-95.386,0-172.988,77.602-172.988,172.988S155.614,423.988,251,423.988S423.988,346.386,423.988,251
				S346.386,78.012,251,78.012z M251,403.988c-84.358,0-152.988-68.63-152.988-152.988S166.642,98.012,251,98.012
				S403.988,166.642,403.988,251S335.358,403.988,251,403.988z"/>
			<path fill="currentColor" d="M253.114,53.825c5.523,0,10-4.477,10-10V10c0-5.523-4.477-10-10-10s-10,4.477-10,10v33.825
				C243.114,49.348,247.591,53.825,253.114,53.825z"/>
			<path fill="currentColor" d="M98.929,110.081c1.952,1.953,4.512,2.929,7.071,2.929s5.118-0.976,7.071-2.929c3.905-3.906,3.905-10.238,0-14.143
				L89.154,72.021c-3.906-3.905-10.238-3.906-14.143,0c-3.905,3.906-3.905,10.238,0,14.143L98.929,110.081z"/>
			<path fill="currentColor" d="M53.825,248.886c0-5.523-4.477-10-10-10H10c-5.523,0-10,4.477-10,10s4.477,10,10,10h33.825
				C49.348,258.886,53.825,254.409,53.825,248.886z"/>
			<path fill="currentColor" d="M37.357,447.51l-3.737,3.737c-3.905,3.906-3.905,10.238,0,14.143c1.952,1.953,4.512,2.929,7.071,2.929
				c2.559,0,5.119-0.976,7.072-2.929l3.737-3.737c3.905-3.906,3.906-10.238,0-14.143C47.594,443.605,41.262,443.605,37.357,447.51z"
				/>
			<path fill="currentColor" d="M95.872,388.995l-31.871,31.871c-3.905,3.906-3.905,10.238,0,14.143c1.952,1.953,4.512,2.929,7.071,2.929
				c2.559,0,5.119-0.976,7.072-2.929l31.871-31.871c3.905-3.906,3.906-10.238,0-14.143C106.109,385.09,99.777,385.09,95.872,388.995
				z"/>
			<path fill="currentColor" d="M248.886,448.175c-5.523,0-10,4.477-10,10V492c0,5.523,4.477,10,10,10c5.523,0,10-4.477,10-10v-33.825
				C258.886,452.652,254.409,448.175,248.886,448.175z"/>
			<path fill="currentColor" d="M403.073,391.919c-3.906-3.905-10.238-3.905-14.143,0c-3.905,3.906-3.905,10.238,0,14.143l23.917,23.917
				c1.952,1.953,4.512,2.929,7.071,2.929c2.559,0,5.119-0.976,7.072-2.929c3.905-3.906,3.905-10.238,0-14.143L403.073,391.919z"/>
			<path fill="currentColor" d="M492,243.114h-33.825c-5.523,0-10,4.477-10,10s4.477,10,10,10H492c5.523,0,10-4.477,10-10S497.523,243.114,492,243.114z"
				/>
			<path fill="currentColor" d="M457.913,57.077c2.559,0,5.118-0.976,7.072-2.929l4.72-4.72c3.905-3.906,3.905-10.238,0-14.143
				c-3.906-3.905-10.238-3.905-14.143,0l-4.72,4.72c-3.905,3.906-3.905,10.238,0,14.143
				C452.794,56.101,455.354,57.077,457.913,57.077z"/>
			<path fill="currentColor" d="M424.593,66.253l-32.596,32.596c-3.905,3.906-3.905,10.238,0,14.143c1.952,1.953,4.512,2.929,7.071,2.929
				c2.559,0,5.119-0.976,7.072-2.929l32.596-32.596c3.905-3.906,3.906-10.238,0-14.143C434.83,62.348,428.498,62.348,424.593,66.253
				z"/>
			<path fill="currentColor" d="M134.013,250.999c0-5.523-4.477-10-10-10s-10,4.477-10,10c0,14.364,2.214,28.518,6.583,42.069
				c1.366,4.237,5.291,6.935,9.515,6.935c1.016,0,2.051-0.156,3.072-0.486c5.256-1.694,8.144-7.329,6.449-12.586
				C135.904,275.366,134.013,263.276,134.013,250.999z"/>
			<path fill="currentColor" d="M251,114.012c-30.362,0-59.124,9.729-83.178,28.135c-23.28,17.813-40.519,43.065-48.54,71.102
				c-1.519,5.31,1.554,10.846,6.864,12.365c0.919,0.263,1.844,0.388,2.755,0.388c4.351,0,8.353-2.86,9.61-7.252
				c14.275-49.892,60.531-84.738,112.489-84.738c5.523,0,10-4.477,10-10C261,118.489,256.523,114.012,251,114.012z"/>
		</g>
	</g>
</g>
<g>
</g>
<g>
</g>
<g>
</g>
<g>
</g>
<g>
</g>
<g>
</g>
<g>
</g>
<g>
</g>
<g>
</g>
<g>
</g>
<g>
</g>
<g>
</g>
<g>
</g>
<g>
</g>
<g>
</g>
</svg>
